<mxfile host="Electron" agent="Mozilla/5.0 (Windows NT 10.0; Win64; x64) AppleWebKit/537.36 (KHTML, like Gecko) draw.io/24.7.5 Chrome/126.0.6478.183 Electron/31.3.0 Safari/537.36" version="24.7.5">
  <diagram id="0H-oHs4jcjWmTNCSvigG" name="Page-1">
    <mxGraphModel dx="2474" dy="1245" grid="1" gridSize="10" guides="1" tooltips="1" connect="1" arrows="1" fold="1" page="0" pageScale="1" pageWidth="850" pageHeight="1100" math="0" shadow="0">
      <root>
        <mxCell id="0" />
        <mxCell id="1" parent="0" />
        <mxCell id="56" value="" style="rounded=0;whiteSpace=wrap;html=1;sketch=0;strokeColor=#FF6666;fontColor=default;fillColor=none;dashed=1;opacity=60;" parent="1" vertex="1">
          <mxGeometry x="720" y="750" width="800" height="400" as="geometry" />
        </mxCell>
        <mxCell id="53" value="" style="rounded=0;whiteSpace=wrap;html=1;sketch=0;strokeColor=#B266FF;fontColor=default;fillColor=none;dashed=1;opacity=60;" parent="1" vertex="1">
          <mxGeometry x="207.5" y="590" width="465" height="210" as="geometry" />
        </mxCell>
        <mxCell id="65" value="" style="rounded=0;whiteSpace=wrap;html=1;sketch=0;strokeColor=#FFFFFF;fontColor=default;fillColor=none;" parent="1" vertex="1">
          <mxGeometry x="960" y="839" width="340" height="290" as="geometry" />
        </mxCell>
        <mxCell id="46" value="" style="rounded=0;whiteSpace=wrap;html=1;sketch=0;strokeColor=#B266FF;fontColor=default;fillColor=none;dashed=1;opacity=60;" parent="1" vertex="1">
          <mxGeometry x="620" y="90" width="440" height="450" as="geometry" />
        </mxCell>
        <mxCell id="37" value="" style="rounded=0;whiteSpace=wrap;html=1;sketch=0;strokeColor=#B266FF;fontColor=default;fillColor=none;dashed=1;opacity=60;" parent="1" vertex="1">
          <mxGeometry x="-180" y="90" width="440" height="450" as="geometry" />
        </mxCell>
        <mxCell id="6" style="edgeStyle=orthogonalEdgeStyle;html=1;entryX=0;entryY=0.5;entryDx=0;entryDy=0;strokeColor=#99FFCC;" parent="1" source="2" target="5" edge="1">
          <mxGeometry relative="1" as="geometry" />
        </mxCell>
        <mxCell id="16" style="edgeStyle=orthogonalEdgeStyle;html=1;exitX=1;exitY=0.25;exitDx=0;exitDy=0;entryX=0;entryY=0;entryDx=0;entryDy=0;dashed=1;startArrow=classic;startFill=1;strokeColor=#66B2FF;" parent="1" source="2" target="5" edge="1">
          <mxGeometry relative="1" as="geometry" />
        </mxCell>
        <mxCell id="45" style="edgeStyle=orthogonalEdgeStyle;html=1;exitX=0;exitY=0.5;exitDx=0;exitDy=0;dashed=1;strokeColor=#66B2FF;fontColor=default;startArrow=classic;startFill=1;entryX=1;entryY=0.5;entryDx=0;entryDy=0;" parent="1" source="2" target="42" edge="1">
          <mxGeometry relative="1" as="geometry" />
        </mxCell>
        <mxCell id="2" value="Producer&lt;br&gt;(n)" style="rounded=1;whiteSpace=wrap;html=1;" parent="1" vertex="1">
          <mxGeometry x="80" y="200" width="160" height="80" as="geometry" />
        </mxCell>
        <mxCell id="7" style="edgeStyle=orthogonalEdgeStyle;html=1;entryX=0;entryY=0.5;entryDx=0;entryDy=0;strokeColor=#99FFCC;" parent="1" source="3" target="5" edge="1">
          <mxGeometry relative="1" as="geometry" />
        </mxCell>
        <mxCell id="28" style="edgeStyle=orthogonalEdgeStyle;html=1;exitX=1;exitY=0.25;exitDx=0;exitDy=0;entryX=0;entryY=0;entryDx=0;entryDy=0;dashed=1;startArrow=classic;startFill=1;strokeColor=#66B2FF;" parent="1" source="3" target="5" edge="1">
          <mxGeometry relative="1" as="geometry" />
        </mxCell>
        <mxCell id="44" style="edgeStyle=orthogonalEdgeStyle;html=1;exitX=0;exitY=0.5;exitDx=0;exitDy=0;entryX=1;entryY=0.5;entryDx=0;entryDy=0;dashed=1;strokeColor=#66B2FF;fontColor=default;startArrow=classic;startFill=1;" parent="1" source="3" target="42" edge="1">
          <mxGeometry relative="1" as="geometry" />
        </mxCell>
        <mxCell id="3" value="Producer&lt;br&gt;(n + 1)" style="rounded=1;whiteSpace=wrap;html=1;" parent="1" vertex="1">
          <mxGeometry x="80" y="320" width="160" height="80" as="geometry" />
        </mxCell>
        <mxCell id="9" style="edgeStyle=orthogonalEdgeStyle;html=1;entryX=0;entryY=0.5;entryDx=0;entryDy=0;strokeColor=#99FFCC;" parent="1" source="4" target="5" edge="1">
          <mxGeometry relative="1" as="geometry" />
        </mxCell>
        <mxCell id="29" style="edgeStyle=orthogonalEdgeStyle;html=1;exitX=1;exitY=0.25;exitDx=0;exitDy=0;entryX=0;entryY=0;entryDx=0;entryDy=0;dashed=1;startArrow=classic;startFill=1;strokeColor=#66B2FF;" parent="1" source="4" target="5" edge="1">
          <mxGeometry relative="1" as="geometry" />
        </mxCell>
        <mxCell id="43" style="edgeStyle=orthogonalEdgeStyle;html=1;entryX=1;entryY=0.5;entryDx=0;entryDy=0;dashed=1;strokeColor=#66B2FF;fontColor=default;startArrow=classic;startFill=1;" parent="1" source="4" target="42" edge="1">
          <mxGeometry relative="1" as="geometry" />
        </mxCell>
        <mxCell id="4" value="Producer&lt;br&gt;(n + ...)" style="rounded=1;whiteSpace=wrap;html=1;" parent="1" vertex="1">
          <mxGeometry x="80" y="440" width="160" height="80" as="geometry" />
        </mxCell>
        <mxCell id="13" style="edgeStyle=orthogonalEdgeStyle;html=1;entryX=0;entryY=0.5;entryDx=0;entryDy=0;strokeColor=#99FFCC;" parent="1" source="5" target="10" edge="1">
          <mxGeometry relative="1" as="geometry" />
        </mxCell>
        <mxCell id="14" style="edgeStyle=orthogonalEdgeStyle;html=1;strokeColor=#99FFCC;exitX=1;exitY=0.5;exitDx=0;exitDy=0;" parent="1" source="5" target="11" edge="1">
          <mxGeometry relative="1" as="geometry">
            <Array as="points">
              <mxPoint x="580" y="695" />
              <mxPoint x="580" y="360" />
            </Array>
          </mxGeometry>
        </mxCell>
        <mxCell id="15" style="edgeStyle=orthogonalEdgeStyle;html=1;entryX=0;entryY=0.5;entryDx=0;entryDy=0;strokeColor=#99FFCC;" parent="1" source="5" target="12" edge="1">
          <mxGeometry relative="1" as="geometry" />
        </mxCell>
        <mxCell id="98" style="edgeStyle=orthogonalEdgeStyle;html=1;exitX=0.5;exitY=1;exitDx=0;exitDy=0;entryX=0;entryY=0.5;entryDx=0;entryDy=0;dashed=1;strokeColor=#FF0000;fontSize=16;fontColor=default;startArrow=none;startFill=0;dashPattern=1 1;" parent="1" source="5" target="57" edge="1">
          <mxGeometry relative="1" as="geometry" />
        </mxCell>
        <mxCell id="5" value="&lt;br&gt;&lt;br&gt;Public&amp;nbsp;&lt;br&gt;Communication&lt;br&gt;Channel" style="ellipse;whiteSpace=wrap;html=1;strokeColor=#99FFFF;" parent="1" vertex="1">
          <mxGeometry x="360" y="630" width="160" height="130" as="geometry" />
        </mxCell>
        <mxCell id="32" style="edgeStyle=orthogonalEdgeStyle;html=1;exitX=0;exitY=0.25;exitDx=0;exitDy=0;entryX=1;entryY=0;entryDx=0;entryDy=0;dashed=1;startArrow=classic;startFill=1;strokeColor=#66B2FF;" parent="1" source="10" target="5" edge="1">
          <mxGeometry relative="1" as="geometry" />
        </mxCell>
        <mxCell id="52" style="edgeStyle=orthogonalEdgeStyle;html=1;exitX=1;exitY=0.5;exitDx=0;exitDy=0;entryX=0;entryY=0.5;entryDx=0;entryDy=0;dashed=1;strokeColor=#66B2FF;fontSize=20;fontColor=default;startArrow=classic;startFill=1;" parent="1" source="10" target="49" edge="1">
          <mxGeometry relative="1" as="geometry" />
        </mxCell>
        <mxCell id="10" value="Consumer&lt;br&gt;(n)" style="rounded=1;whiteSpace=wrap;html=1;" parent="1" vertex="1">
          <mxGeometry x="640" y="200" width="160" height="80" as="geometry" />
        </mxCell>
        <mxCell id="31" style="edgeStyle=orthogonalEdgeStyle;html=1;exitX=0;exitY=0.25;exitDx=0;exitDy=0;entryX=1;entryY=0;entryDx=0;entryDy=0;dashed=1;startArrow=classic;startFill=1;strokeColor=#66B2FF;" parent="1" source="11" target="5" edge="1">
          <mxGeometry relative="1" as="geometry" />
        </mxCell>
        <mxCell id="51" style="edgeStyle=orthogonalEdgeStyle;html=1;exitX=1;exitY=0.5;exitDx=0;exitDy=0;dashed=1;strokeColor=#66B2FF;fontSize=20;fontColor=default;startArrow=classic;startFill=1;entryX=0;entryY=0.5;entryDx=0;entryDy=0;" parent="1" source="11" target="49" edge="1">
          <mxGeometry relative="1" as="geometry">
            <mxPoint x="880" y="360" as="targetPoint" />
          </mxGeometry>
        </mxCell>
        <mxCell id="11" value="Consumer&lt;br&gt;(n + 1)" style="rounded=1;whiteSpace=wrap;html=1;" parent="1" vertex="1">
          <mxGeometry x="640" y="320" width="160" height="80" as="geometry" />
        </mxCell>
        <mxCell id="30" style="edgeStyle=orthogonalEdgeStyle;html=1;exitX=0;exitY=0.25;exitDx=0;exitDy=0;entryX=1;entryY=0;entryDx=0;entryDy=0;dashed=1;startArrow=classic;startFill=1;strokeColor=#66B2FF;" parent="1" source="12" target="5" edge="1">
          <mxGeometry relative="1" as="geometry" />
        </mxCell>
        <mxCell id="50" style="edgeStyle=orthogonalEdgeStyle;html=1;exitX=1;exitY=0.5;exitDx=0;exitDy=0;entryX=0;entryY=0.5;entryDx=0;entryDy=0;dashed=1;strokeColor=#66B2FF;fontSize=20;fontColor=default;startArrow=classic;startFill=1;" parent="1" source="12" target="49" edge="1">
          <mxGeometry relative="1" as="geometry" />
        </mxCell>
        <mxCell id="12" value="Consumer&lt;br&gt;(n + 2)" style="rounded=1;whiteSpace=wrap;html=1;" parent="1" vertex="1">
          <mxGeometry x="640" y="440" width="160" height="80" as="geometry" />
        </mxCell>
        <mxCell id="17" value="Form encryption keys" style="text;html=1;align=center;verticalAlign=middle;resizable=0;points=[];autosize=1;strokeColor=none;fillColor=none;" parent="1" vertex="1">
          <mxGeometry x="370" y="190" width="140" height="30" as="geometry" />
        </mxCell>
        <mxCell id="22" value="" style="dashed=0;outlineConnect=0;html=1;align=center;labelPosition=center;verticalLabelPosition=bottom;verticalAlign=top;shape=mxgraph.weblogos.grooveshark;fillColor=#000000;strokeColor=default;" parent="1" vertex="1">
          <mxGeometry x="795" y="765" width="40" height="40" as="geometry" />
        </mxCell>
        <mxCell id="24" value="" style="aspect=fixed;html=1;points=[];align=center;image;fontSize=12;image=img/lib/azure2/compute/Kubernetes_Services.svg;strokeColor=default;" parent="1" vertex="1">
          <mxGeometry x="-160" y="110" width="56.67" height="50" as="geometry" />
        </mxCell>
        <mxCell id="35" value="" style="shape=image;verticalLabelPosition=bottom;labelBackgroundColor=default;verticalAlign=top;aspect=fixed;imageAspect=0;image=data:image/png,iVBORw0KGgoAAAANSUhEUgAAAr4AAAFxCAYAAACV0auJAAAACXBIWXMAAAsTAAALEwEAmpwYAAAKT2lDQ1BQaG90b3Nob3AgSUNDIHByb2ZpbGUAAHjanVNnVFPpFj333vRCS4iAlEtvUhUIIFJCi4AUkSYqIQkQSoghodkVUcERRUUEG8igiAOOjoCMFVEsDIoK2AfkIaKOg6OIisr74Xuja9a89+bN/rXXPues852zzwfACAyWSDNRNYAMqUIeEeCDx8TG4eQuQIEKJHAAEAizZCFz/SMBAPh+PDwrIsAHvgABeNMLCADATZvAMByH/w/qQplcAYCEAcB0kThLCIAUAEB6jkKmAEBGAYCdmCZTAKAEAGDLY2LjAFAtAGAnf+bTAICd+Jl7AQBblCEVAaCRACATZYhEAGg7AKzPVopFAFgwABRmS8Q5ANgtADBJV2ZIALC3AMDOEAuyAAgMADBRiIUpAAR7AGDIIyN4AISZABRG8lc88SuuEOcqAAB4mbI8uSQ5RYFbCC1xB1dXLh4ozkkXKxQ2YQJhmkAuwnmZGTKBNA/g88wAAKCRFRHgg/P9eM4Ors7ONo62Dl8t6r8G/yJiYuP+5c+rcEAAAOF0ftH+LC+zGoA7BoBt/qIl7gRoXgugdfeLZrIPQLUAoOnaV/Nw+H48PEWhkLnZ2eXk5NhKxEJbYcpXff5nwl/AV/1s+X48/Pf14L7iJIEyXYFHBPjgwsz0TKUcz5IJhGLc5o9H/LcL//wd0yLESWK5WCoU41EScY5EmozzMqUiiUKSKcUl0v9k4t8s+wM+3zUAsGo+AXuRLahdYwP2SycQWHTA4vcAAPK7b8HUKAgDgGiD4c93/+8//UegJQCAZkmScQAAXkQkLlTKsz/HCAAARKCBKrBBG/TBGCzABhzBBdzBC/xgNoRCJMTCQhBCCmSAHHJgKayCQiiGzbAdKmAv1EAdNMBRaIaTcA4uwlW4Dj1wD/phCJ7BKLyBCQRByAgTYSHaiAFiilgjjggXmYX4IcFIBBKLJCDJiBRRIkuRNUgxUopUIFVIHfI9cgI5h1xGupE7yAAygvyGvEcxlIGyUT3UDLVDuag3GoRGogvQZHQxmo8WoJvQcrQaPYw2oefQq2gP2o8+Q8cwwOgYBzPEbDAuxsNCsTgsCZNjy7EirAyrxhqwVqwDu4n1Y8+xdwQSgUXACTYEd0IgYR5BSFhMWE7YSKggHCQ0EdoJNwkDhFHCJyKTqEu0JroR+cQYYjIxh1hILCPWEo8TLxB7iEPENyQSiUMyJ7mQAkmxpFTSEtJG0m5SI+ksqZs0SBojk8naZGuyBzmULCAryIXkneTD5DPkG+Qh8lsKnWJAcaT4U+IoUspqShnlEOU05QZlmDJBVaOaUt2ooVQRNY9aQq2htlKvUYeoEzR1mjnNgxZJS6WtopXTGmgXaPdpr+h0uhHdlR5Ol9BX0svpR+iX6AP0dwwNhhWDx4hnKBmbGAcYZxl3GK+YTKYZ04sZx1QwNzHrmOeZD5lvVVgqtip8FZHKCpVKlSaVGyovVKmqpqreqgtV81XLVI+pXlN9rkZVM1PjqQnUlqtVqp1Q61MbU2epO6iHqmeob1Q/pH5Z/YkGWcNMw09DpFGgsV/jvMYgC2MZs3gsIWsNq4Z1gTXEJrHN2Xx2KruY/R27iz2qqaE5QzNKM1ezUvOUZj8H45hx+Jx0TgnnKKeX836K3hTvKeIpG6Y0TLkxZVxrqpaXllirSKtRq0frvTau7aedpr1Fu1n7gQ5Bx0onXCdHZ4/OBZ3nU9lT3acKpxZNPTr1ri6qa6UbobtEd79up+6Ynr5egJ5Mb6feeb3n+hx9L/1U/W36p/VHDFgGswwkBtsMzhg8xTVxbzwdL8fb8VFDXcNAQ6VhlWGX4YSRudE8o9VGjUYPjGnGXOMk423GbcajJgYmISZLTepN7ppSTbmmKaY7TDtMx83MzaLN1pk1mz0x1zLnm+eb15vft2BaeFostqi2uGVJsuRaplnutrxuhVo5WaVYVVpds0atna0l1rutu6cRp7lOk06rntZnw7Dxtsm2qbcZsOXYBtuutm22fWFnYhdnt8Wuw+6TvZN9un2N/T0HDYfZDqsdWh1+c7RyFDpWOt6azpzuP33F9JbpL2dYzxDP2DPjthPLKcRpnVOb00dnF2e5c4PziIuJS4LLLpc+Lpsbxt3IveRKdPVxXeF60vWdm7Obwu2o26/uNu5p7ofcn8w0nymeWTNz0MPIQ+BR5dE/C5+VMGvfrH5PQ0+BZ7XnIy9jL5FXrdewt6V3qvdh7xc+9j5yn+M+4zw33jLeWV/MN8C3yLfLT8Nvnl+F30N/I/9k/3r/0QCngCUBZwOJgUGBWwL7+Hp8Ib+OPzrbZfay2e1BjKC5QRVBj4KtguXBrSFoyOyQrSH355jOkc5pDoVQfujW0Adh5mGLw34MJ4WHhVeGP45wiFga0TGXNXfR3ENz30T6RJZE3ptnMU85ry1KNSo+qi5qPNo3ujS6P8YuZlnM1VidWElsSxw5LiquNm5svt/87fOH4p3iC+N7F5gvyF1weaHOwvSFpxapLhIsOpZATIhOOJTwQRAqqBaMJfITdyWOCnnCHcJnIi/RNtGI2ENcKh5O8kgqTXqS7JG8NXkkxTOlLOW5hCepkLxMDUzdmzqeFpp2IG0yPTq9MYOSkZBxQqohTZO2Z+pn5mZ2y6xlhbL+xW6Lty8elQfJa7OQrAVZLQq2QqboVFoo1yoHsmdlV2a/zYnKOZarnivN7cyzytuQN5zvn//tEsIS4ZK2pYZLVy0dWOa9rGo5sjxxedsK4xUFK4ZWBqw8uIq2Km3VT6vtV5eufr0mek1rgV7ByoLBtQFr6wtVCuWFfevc1+1dT1gvWd+1YfqGnRs+FYmKrhTbF5cVf9go3HjlG4dvyr+Z3JS0qavEuWTPZtJm6ebeLZ5bDpaql+aXDm4N2dq0Dd9WtO319kXbL5fNKNu7g7ZDuaO/PLi8ZafJzs07P1SkVPRU+lQ27tLdtWHX+G7R7ht7vPY07NXbW7z3/T7JvttVAVVN1WbVZftJ+7P3P66Jqun4lvttXa1ObXHtxwPSA/0HIw6217nU1R3SPVRSj9Yr60cOxx++/p3vdy0NNg1VjZzG4iNwRHnk6fcJ3/ceDTradox7rOEH0x92HWcdL2pCmvKaRptTmvtbYlu6T8w+0dbq3nr8R9sfD5w0PFl5SvNUyWna6YLTk2fyz4ydlZ19fi753GDborZ752PO32oPb++6EHTh0kX/i+c7vDvOXPK4dPKy2+UTV7hXmq86X23qdOo8/pPTT8e7nLuarrlca7nuer21e2b36RueN87d9L158Rb/1tWeOT3dvfN6b/fF9/XfFt1+cif9zsu72Xcn7q28T7xf9EDtQdlD3YfVP1v+3Njv3H9qwHeg89HcR/cGhYPP/pH1jw9DBY+Zj8uGDYbrnjg+OTniP3L96fynQ89kzyaeF/6i/suuFxYvfvjV69fO0ZjRoZfyl5O/bXyl/erA6xmv28bCxh6+yXgzMV70VvvtwXfcdx3vo98PT+R8IH8o/2j5sfVT0Kf7kxmTk/8EA5jz/GMzLdsAAAAgY0hSTQAAeiUAAICDAAD5/wAAgOkAAHUwAADqYAAAOpgAABdvkl/FRgAAMAZJREFUeNrs3e9x20i2xuG3XfN9MREMHcFQEYiKwFQEJiOwFIGkCERHQDoC0RGIjkCYCISNYHAj6PsBh2uORrZFCQfoBn5PlWu3bt2F8K/RL5oH3SHGKAAAAGDo3nEKAAAAQPAFAAAACL4AAAAAwRcAAAAg+AIAAAAEXwAAAIDgCwAAABB8AQAAAIIvAAAACL4AAAAAwRcAAAAg+AIAAAAEXwAAAIDgCwAAABB8AQAAAIIvAAAAQPAFAAAACL4AAAAg+AIAAAAEXwAAAIDgCwAAABB8AQAAAIIvAAAAQPAFAAAACL4AAAAAwRcAAAAg+AIAAIDgCwAAABB8AQAAAIIvAAAAQPAFAAAACL4AAAAAwRcAAAAg+AIAAAAEXwAAAIDgCwAAAIIvAAAAQPAFAAAACL4AAAAAwRcAAAAg+AIAAAAEXwAAAIDgCwAAALzcb7ntcAghyxMdY5xKKg7+T1UIoeIWBPCG5wonAQCGHHwT74QmkmaSJpJO7T8nL+i0SkmVpL/sv+9CCDVnFAAAoD0htxGD1EZ8Y4xzC7nzn4XcVyglfZW0YWQYwC9engEABF+3zmYiaSHpY8th92ch+LOkLSPBAAi+AEDw7SrwXlno7UNtAXhFAAZA8AUAgu8QA++zATiEcM0tDBB8AQAE37Y6lgsLvUWCp6OStAwh7LiVAYIvAIDg+9oOZSJprWaWhtStJN1Q/gAQfAEABN9jO5O5hd4io1NTqhn9LbmtAYIvAODfWLnt3x3JtaS7zEKvJE0l3VtoBwAAwBOM+P4z9K6Vzgdsb7EMIWy4vYHBv6hzEgDgCIz4Di/0StI6xrjgqgIAABB8hxx6Cb8AAAAE39GEXsIvAADAE6Ou8bU5em8Hfo1rSWfM9gAM8sWdkwAABN8XdRgzSfcjuc6VpBPm+QUIvgAwZqMsdYgxFmrm6R2LyciOFwAAgOBr1hYGx2ROvS8AABiz0ZU6jKzE4ala0ntKHoBhoNQBAI4zxhHfMf/kX2j4H/MBAAAQfG0Wh8nIr/kixjjh1gcAAGMzqlKHGOPfakY9u1BL2kr6Jql8bjoxK7uYSjqVNO/wNG5CCEtufyD7l3lOAgAQfJ/tIBbqpsyhknQTQtgcuX+FpAtJnzoK5+9DCBVNACD4AgDBd3jB91G+ZQ61Bd7VGzuyQtKVhWBPjPoCBF8AIPgOLfh2MJNDKWnZ5upoMca5mhHqwjGoM8MDQPAFgNEYy8dtH51Db+tLAocQtpLOLKB6KNRtXTEAAADBtwNeAa8MIbgtBWxh2jP8fqAJAACAsRh8qYOVDNw57Eol6aSLUoEY41TSg9P5DDQDIE+UOgDAccYw4nvqtN1lV/WxNvJ749RxzmgGAACA4DsMHsFuE0LYdXkQIYRrNaPMOZwfAAAAgm8Ppg7bvOzpWDxGfU9pBgAAgOCbOaef8Td9TQFmi2JUGbwYAAAAEHw7NnHY5ueej2nb8vYKWzQDAACA4Evw/Z+67fl6X+GLwzanNAUAAEDwzdt/Wt5e36FXCQRvAAAAgm+Cpi1v71six7VL/DwBAAAQfJGkglMAAAAIvji0S2Q/Ki4FAAAAwXcMCk4BAAAAwdfTjOALAABA8EW+wbfmlAIAAIJv3tqehSGV5X2nLW+vpCkAAACCLw7N+t4Bp2WYAQAACL6ZKx2C57znY/rQ9gZDCDuaAgAAIPjmrXLY5seej2nR8vZqmgEAACD4Zs5ped95jHHSx/HEGBdq/8O2kmYAAAAIvsOwc9jmuofQW0i6ddj0N5oBAAAg+A6DR7Cb9VDreyWf+Xt3NAMAADAGIcaY1w6HcNT/f4xxKunBYVdqSWdO5RRPj2Ehn1HmOoTwO80AyFNuz28A6NvgR3wtmFYOmy4kra0EwbNjm8qvtGJLEwAAAATfYfEKeFNJ914fu9mcvfeO5+UrTQAAAIzF4EsdLEBO5VPusFdLOm9zPtwY44V8Pmbbq0II72kCQL4odQCA4/w2inQfQhlj3Mlv5bVCzcjvStJNCKF+Q0c2tcA7cz4tXzLu7As1o+0zSf/R9yWci4P/Xuv7VG21pL/UlLxULNgBAMA4jWLE18LSQt1MQ1ZL2kj6HEKojti/mZrFMRYdncrf3xLQewi7czWr1s0kTVrY5E5Nqceuiw8UAad2wUkAAILvDzuJx5ZC00uVFrC+WSCuQgiVjeoWti+nLYa5l9qEEJYZdOr7l4G5fKZy26skfZa0PeZlBSD4AgDBN+XgO5d0N/JrXks6STng2ej8VccvA/97KVAzWl/yeADBFwCG5d2YDjaEsBULNnxONfTGGBc2Kr/uKfRKTanJQ4zxrq+lqQEAgFMWHNOIr4WrqXxneEhZpWa0t04s8E4t7E4TPGcrvfGDRcCx7XASAOAI78Z2wPYT9s1Ir/cypQAXYyxijLf2IjJN9JxdqBkBnvG4AAAg8xw4thHfg9CVctjysAohXCYUeqdKd5Q3i3MIMOILAATfl3YYEzUjjcUIrnMZQjhJqLNeqJmrOMdzv1OzWEnN4wMEXwDIy7uxHrh94LUcwaHWks4S6qgv1Iz05vrCMVOzWMmUxwcAAATfnMLvduDht5Z0lsroZIxxLd9lmLsyJfwCAEDwzTH8btR8uT9E56nMR2uhdzGgc1sQfgEAIPjmGH4v1SxcMCTLEMIukdB7MbDQ+zT8FrQiAAAIvjmF36WkIXyxX6uZqzeJIH/wIdtQEX4BACD4Zhl+V2pqfutMD6FSU9NbJhJ6pwMPvXtjOU4AAPLOemOdzuwFge1O/S2b+xpbJbRAhY2A3mtccyUvUxlpxzgwnRkAHIcR3+fDdSnpRHl89FZLugwhpDa37NXIQq8k3dr80AAAIMWMx4jvz9lStWulOfq7UzPKWKW0U3bO7kfapnYhhDMB3bQ1TgIAHIER318H7V0I4b2kG6VT+1upqeU9Sy30mjHXu85ijHNaDgAACeY6RnxfzupWLyR9VD8jwKWkzynXkdosDuuRt6vKXpYA7/bGSQAAgm9nAe+DpLnzn6rVfLj2JZV5eX9xXh47fimo1JR8/GUvBocm9u9UzVLDXeJDNxB8AYDgO4zge9DxTCz87sNV0WKY+6qmZrTOpBNeqLvR3o2a0e/yhftWqFlE41NHwZxRXxB8AYDgO6zg+0xHdKumHOK1zkMI20w74S5Ge7dqZrGo3hjQb1t6SfkZRn1B8AWAhPBxW/v+743/+zrTDnjmHHpreyk4f+sHfRZG31uI9vSR5gAAAMEXw+MZ8ko1yzC3FlRDCHUI4VzNbB1eZszrCwAAwRfDM3cMvW7TtoUQrtUsU53beQEAAARfdM3mrS0cNl2rKW+oPfffSh82Tpun3AEAAIIvBuTUabudrUoXQljq39OhtWFqM0oAAACCLwZg5rDNbQ+zWywzOj8AAIDgiy7ZaObUYdOXXR+LzQm8cdj0KXcKAAAEX+TPI/RuuipxeMZNJucIAAAQfDGA4Pulr4OxwL0l+AIAMDy/cQrwRkXL26tCCLuej+mr2p2GrOA2gdOLGichAzHGqT0HJvrnQj9Py6DKEMIlZwyZ3d8EX4xK2/WruwSOqfV9iDHOEgj0ALoJuTN7Nk7ELz4AwRf4if/2vQMhhCq3N9geO/n7Fjd3aR8YArm1g5maObtn8l26/bm/vVCL84WHEM64oiD4At3ZJbQfMy7HL7V5jgpOJzILvAtJV12H3ScmPKsAgi8AAF6BdyZp3XPgBfAKzOoAAMDLAm8RY1xLuif0AnlixBcAgF+H3omkO/GxGkDwBVo0SWQ/6NwA7EPvVM0ob8HZAPJGqQNS82cCnVxBBwfg4HlwxzMBIPji+VGBP964man9pJaLquXtzRI4Jo99KGkhQJbuRD0vMBiUOrwt6M70faLytsLSraTbGGOtZkqtb5K2tpRuitqed3caY5z0fLwf2t5gCKGmxQDZPeMvxFRhwKAw4nv8g3AeY1zHGP9WU/N15fRgLNQsm3sr6THG+BhjvLVR5ZSUDtuc93h9C4e/X9JygOye9YU93wEQfEf3AJzEGK9jjI9qfvZaqPt6r4mkC0kPMcaHGOPCHsx9qxy2+anH45k7XFuCL5CfW1HXCxB8Rxh415Ie1f/qPIemaiZPf7RA3tvD2ZaYrdsO+fYTY9fXu5DPCM9ftCYgq2d/oR5/eQJA8O0z8C4S3tV9UOs7AO8ctnnVw0d+F04vNztaFZCVuRjtBQaJj9v+/ZZ/ZQEoJ/v9/hRjvAkhrDr++9/U/uhIoWZU+6yjaz+Tz2hvbaPiAPLhXW5VSdqq+Tj48PlQc+oBgm9XoXduQSvnt/xCzYwQHyUtOwxcldN2ZzHGdQhh6Xztp2pqtz1saV1AVn1BIb8FbHaSbkIIO8400I/RlzrY2ut3GtYE5VM1H8Fdd3Du1o6hUZIW9jc8Q6/nikxfecwAWZk5bfcyhHBG6AUIvn2G3qmkBw33I4arGOO9R+2vhequaqAXNoVc0fIxzJxDbxVC2PKYAbIbOPAIvStOLUDw7TP0Liz0TgZ+qDM1H79NWzpvM5vW7UrdjpAv1Ixiz1o4hiLGeOsceiXpC48YIDunLW9vR+gFCL59h961mnresSgsNC7ecM4mMcZ7C4t9vSxMJN3bKPbsFcdQHIxUX3SwvxseMUCWz8s23XBKgXSM7uM2C72LkV7vdYxRIYTNEeerUHozXczUfPhWqfl47OuP6uZsSrSpmmWI5+pulHqT8DLTAH5s2uK2Kmp6AYIvoTeT8GuLSHRd0nCMiQXyixij1EwFVD4JyH1hlAfAllMAEHz7CLyFmp/op1zy/4Xf0x9NE2ZlBLcZnq+i57C7t2K0F8i2r2jTfzmrQFrGUuN7R+j9l8XTml+r473jJeFNajHaC+Sq7edeySkF0jL4EV8rb5hxqZ+1thKBrZqSgStOyZstQwg1pwEAAIJv16H3QtT0/jL8WuCdcCrebMu8vQAAEHz7CL0zNXWq+DVC79tVkpacBiT+XCz065/z6w6XOwfG2A6n+vVH4xXfihB8j32433F50ZFa0jklDkjw5X8m6U97uZ0e8b/dv8xVkr6pWYRhx1kFjs4iM2t7p/afxZHtsLR/f1k75KWU4PusO6U7BReG55KHERLoZCdq5qo+VTvLsE/s30zN8ufS93mzN5xx4Nl2OJX08SDwvtX0cDs2f/1O0mf6ndd5N8Cb7kJ8zJaSStK5hvt185IQkN0zoogxPkQ/tx0fz8JWVXxUU941d/xzczUfxf4dY7y1sH3Mvt63eJ6vj/zbv6RmRps2HXu89yNqh1O7jzz8fey92cIz5SLG+CjpQc3H4lOnPzdR8+3SQ4zx8dgVWWOMs5bPdXZ5693AGlKhdGcmKO0tbf+vHvhzrVYzEvrePvg6G2D4JfTmae3YKW1CCJcddbTX1tH2MXNNYZ37Y4xx7TD/LQYeeu0lw+u+ueyiPtamAF1L+tteOicdn8qJvYgeHYDHbGgjvrdKo8ShVDOX65mk30PjJIRwdvDv9xBCkHSiZkR0pWZ0dAhWkt6HEFb7/4PVvw4p/BJ68+xw1/IbEd38aFGYlo/hWs3obiqzsSwsAF9wh+ElL232subVV7s/mw8C76PSmDlqH4AfchyBJfi+/kac9XwDVpIuLfCdhBCuQwi7X33wFEIoQwjbEMJlCOG9BeGN8hwR3tnxXz533Afhd5vxrVYTerN9Rtw6PiPcQ6/9RLkPvEVip7eQdGulDBPuNvwk9HoukNRF6L1WU86wSPAUT9WU11xzt40g+Kq/EofKGtv7EMKbl6q1ILyU9F7NqHEOAbhSM6vB2a+OP4RQhxDOlefqZpWkM0Jvlh3uQs1P8x5Ke+l1CwsHKyqmHipnamoPZ9x1eIbnKqquoddqkh8SffH8Vx6y0d+CW26gwfdg2p4u1ZJuLPC23tgsIF5bAN4meuoPz8H2yOO7VjP6W2dym20knfAVbbahd+0Yes+8prKzWsgH+X6w1rZCzajTgrsPB/eyZy36yjn0Xlg7nGZ0yqf2Ejrl7htg8FX3o737zu7a+w8djJCeJxYSN2rKGq7fcGw7C/abhO+tSs1oNksR5/tSnGvoXVhnO8n09K8JvzgIvV73gtsHpfZry1r5LoY1sZdQwu+Qgq9d0FmHf3JjnV3Z5XHaiOqJ+v84bKdm5LOVIGjBfqlm9HeX2O11Y8e65VGR7bPBayEb79C7dgzshF902Q4vlGFt/UE9cu73b2Hht+BuHEjwlfSpy9Db58if1c/2NTNCpaaGyiX024eAZ2qW/e0z3Nc6GM1mlDfr0Os1XVItx5X6nEfH+gq/U+7KUbbDhfxGSz1D70S+H+ERfgm+b3oj66qD6GSqohcExLqH8Lsf+dx0cHybEMKJHeOmw2Os9H1WjiVrpGf/XPCaLqlWM9JbOe370ELv3h2d7uja4Vx+v1psnUNvbvW8LzFVviUbBN8D8zGF3h7D76brkU8bAV5K+l3NKPDWKeyuLNTvZ+WoeSxkH3q9Rmr2obd02vehhl6pqTWk0x1PO5zKt7bes7zhTunP2vBaC0kfxn5//pb5/ndxAcuUQu9h+I0xntubqXcjnVtA7Cvkb+zf4Qwef1pn+tKAU9sDs5T0l6Qdo7qDlGvovR5w6D3sdHmxHEfo9SozKuVUW9/BHMOpuCD45tu4CvmP+NZqZlNIUgihijEu5fcBz97HvoLvM8e80zMfwf1k3tCKgDuaDtdzKWLP0LtQukutt63gTh10GyxyDL3mdgShF8p7xHfewd+4ST00hRC2Mcat8/mYxhiLlMsALBBj3KF34bT5pWPonYoSABB6ew29zjNPIDE51/ieOm+/DCGsMjkXlx38jTnNBYl2uJ6dlvcSqF4f4QF9hN6pw+Zra4deoZeXz5HJecR3NoAw2QoreVjJt3bnVGkvNIFxdrgLx07LewnUa/X/02pl/54zUb6LZzz3nAwvuCYzC3BtORvJr1FeZQK1/OfNT2G+7FI/rn+fCQRfm27E84FcZfiw+uwcfKc0FyQYer06Le/QO1E/db07SV/V/KK1e+G+zqz9f6ATxjP3h1eZkXvo7enls1YzS9E3a4flC/azsLZ3qubX1wl33siCbwc36k1uJ8RGfTfy+8mX4IuUOtupfCfG3zgfQpejTJWkL3Zc1SueLTsLzKuDudM/0fkixnibcegt1O0CWDtJX17zbLEyj639u7Tn3ycLwQV34nFyrfH1DmHbTM/LV+eH3Iwmg0RCr9dHNO5zdh9MyeetlnRpc1Rft/Ghri0xvgohvFczl2rFHTnadriQ36+M587lDbIX5y5C485C/FlbL9QhhP00q++V4UAdwfd1/vAMvbkuYhBC2Mp3nswJTQY9d7ZFzqH3oMP1tlWzCuHK8XmzkXRCxzva0OtZZrRz3v+J/Gdx2L94utV524votQXgHXfmsIOvZwD7lvk13WV63oHBh96DelnPznYZQjjv4gX+oOM9EYtTjKUdTpVpbf0B7/r6Us0o76qLaxJCqEIIZ8roo3yC7/Gmzjdszv5y3PYfNBn0HHo92v6uw9UZPTvc2jrbTdfXx36Wfj+A5yd+HXrvnTbfSeg9qFP3spP/TBQ/aocrNYtu8RI6wOBbON44u8yvqef+T2gy6InXdEmlOlqd0X5enTmH3t6Cp40wnxF+Bx96Pfrfyw5f2C4ct72x0oa6x3a4tXZI+B1Y8PVSDeAYuNkxtA7Xa7qkUr5LoD71ybHN9xp6Cb+Db4OF/BZb2XS8WNRHp+2WSqTUwJ4F59y5BN9RBN8UOj+gxQ7Xa7qkrkOvlOGSym8Iv0tewgcVer3KjDYdlhntR60nTtnhLKUP4+3X6yV38ACCr924AIbf4S7k87Nk551UjHEun9Gylf20meILOJ3uMNwNIfQar9HeZYqzQVn5yJZbOPPgKyZrBsYSej2+HK/VzBHadSd16hTgk51KzAI5nW7e7XAtn7r0PkKv1Cz44PHyuUv4MvLrywCCL4Bhd7ZTx9DbVy2sR4e7zGDOcTrdvEPvwmHTZR+h16nMoVbi81jbM4JpznIOvgOYdQHAzzsnj+mSegu9NptD2x3uLodnoXW6n7mzs2uHF3Ksre/psGYO27zMYcErK3mouLMzDb7OpgMJDkCu7c9juqTeQq9jh5vTamkrMeqbUx+ykM/qgqX6/QCs7XKjuo85s0fyzCD4dqjgGIDeXDndv33PevBny9urcvrly4LOlts7Gx5lRn2H3v2LdZuy+iWDUd/8g69b47ElRXPmuf8lTQaZvbQtE5j1YNQdbsb7jPb6615Dr03JNml5s5sMrwUvoBkHX88ANs38mp46bvv/aDLIyDKRnyLbfqZk13nZiHvFLUnoHUgbLEMIOd7PX7gl8w2+njfch8yv6SzT8w4MMfRK7Y5k59rhZhnY0UroLRPYl0nL2/ua4wXhBTTv4Ptfz+BoP4tkxybJz/WFA2jLTSqh16F0apfxdfnGrUnoHUjwzbkd7sZ+c77jwj1rnul5+ei5caaSQwbKEML1gI8v5/BYcnuOxmVKy2jTF/7Df8d+c1Lj+7yr3E6IzRU6z/icA22YdvDLxzGKlrdXZRwWKm7P0bhN7JfTNr99yb0v3I395swy+FqhvOdDdGJzGebEO6wTfJGLtb0IJhHEW3720ekiB4Wku4EeW83lJfgO9QGazaivdfLeQZ36PNDpAnipWYzxeoDHlfXLJyWLeQdf7yA2sWUbc3Dbwd/Y8hxHRqYxxtuBHVPNZUVmrga4mijTembut4z3fSufFWaeNtptyrVpVs84937DTXk9chvxnvCGiycuYozfEljAorV2yCVFhu5ijCcp9yEg+GYhhFDHGLfOoa9Q85PpScKBb93Bn/qS0DHP1MxV/Kea+snJC/43+/+6U1Mb/k3Sjo9tknOp9n+9WMcYy4Fc6ym3CDpwo3ZL/fb91DmnNok+tBj7OXiX+f53MYn0NMa4TvTmvZPPMq9Pbfs8zhjjIsZ4F5sEe28P5bmOn5txpqYWei3pMcb4GGO8HeBPcbkqLfx6vLwOwRA6rAm3edpsOsCy5c3OMyod/JU/eIEm+PZpq27q3hYpFelb6L3v8AZe9HCMsxjjnaS/LajOnTrhC0kPFoIveBvuvdNdqf0PV6c9tt/Koe0TfOHt3KFvHcogQ+738Oj7uKyDr9UMbTv6c1cphN8eQu/+2B+7mB/VRncf7RjnHR7jRM3P7PtRYALwsDrdK4dV1DoPvsp4tKan84/X9a2VpKXDpu96eraWtMHB7P+4g6/53HEA7K3swWp673u6cSf20Lr3eGu3Ed4HNaO7fb5RF2pGgR9jjNcE4N5eaIfU6dJpfX+GIJ92uJW0cbgH+uhD25yJoUhonvDXOB37vf1uAI2zVLeToi9ijA9d3/g22vqQQMc3U1MasG4jRFgN712Pgf5nAfjKAvCcbrCXTnflcE27rvct6bTocDN2qfZ/teij3rd26AdzNRv7Tf1uIMdx0/Hfm1r4u+4g8O6DYVcfsr34BcBC4cUbjm0u6VHdljS8KizZx3WF0HW7bjs4djqpvsMUTjl3WrxA5vcCWstnNoau6315Af3e547eu4E0zp26Xwqz0Pfa14VT4L1OPBgW9gB7PLZ+zxYXSC3M/6rTfmAGiM47XY+Sh67rfdt8NhU5dl62z7w45tkOS/kMLnU5mNB28M01QH7gjh7OiK/U/ajv3kTNXKH7mtDJGzuI/fRpj2p+as+hs5hIurf638kLAv29mjra3OyPc8Gjo9NO99Jh0112uhWdFx1u5u3wWu0PLk3UUb2vvUTXY38BFb+6DCv42qjvpudQtK8JfbCZAeYvCIJTm8lgbbMZPKgpIygyvAwz/WRWhIMZKWYZ32qFvegQfrtr2yu1P3tLoe7qff9qeXuLnMpubF9pL/lbqv1a2S7rfcuWt/cpp4tnfVbBbTysEV+pGRmqE9iPqZoRzTsLgjHG+LeNiO7/RVuQYT+TwULD+er5Qk/qf3uahs0T4Tf/Treret+dUxvL6XmA/F9AK/mUHnVV7/vN4fkxy+gSXnEXDzD42s8ZN4nuXqFmpHP/b+gKe6A92E9CQwq9hN9+2rbHRzbu9b5WrtF2aP+Uw6iv/eL1iTt4MO1wq/ZnW5G6KT3yeAHNIkxaPzXhDh5g8LWGuVKPS+ziX6ZqRr6nAz0+wm93bXtHp/vPF8sMLlsu3yng5TxmW5nIud7Xnh9tv4AmP+prz7ZbbtsBB1/j8bMo8CO3zPbQWfi9dOh0C/nX+3512OYi5U7X9o2XwuG1wVo+JQ9d1PvuHLa5TvzXF14+xxB8HX8WBX4YnJjnN+sXW+96363TdpPsdG2f1tyqgw2/pXxmW/EeRPB4AZ0o0RFVe/m84I4dQfC1hrlzaphDVHMKWnn40dF31+l61PK71fvay/jW6b67S/Ay9b30OPzb4Uo+I6iegwheL6CL1ErerL7+jjt1RMH3oGFuuMw/tZT0Xul+FJiTOSvjdNq2PToxz073i9N2Zzb3dyod7lrMFzoW52p/4GQipxFUewH1ygTJfO9hz7CcFogi+LZ8oy8Jvz8OvSGETQihtgnK36v7FfCGZk3JQ6cvbVXL29x3GB7Poq3D/u4tUgi/tg8Lbs3RvIDW8qn39RxB/eJ4SnoPvwOcOpTg+0oeH8TkbhVC2Dx5iFUhhDNJZ44d9NAVYr7E3Dtdz3pfz053EWPsrdac0DvadriVz2wrLvW+VgbpmQd6C792vgi9BN//dZBnhN//2djX8T98MIQQ3iudBUFeqlIzYr3/15eLty5djaM6sZzqfVfObWquZlntzjq+GOMkxvhA6B11O/SabcXrF7TPzqdkbauxFh22wzmhl+D7r/AbQjgRZQ9LK/94yTlbqSl/WCV6LKWFnrPQeB9CODv4F2z/z+26dxniGfXtrm1fO73Utj56ai/h3p3uVNJDjPHau+O1kfEHOlvIZ7aVqRzqfe3Xzsr5fCysHS6c2+AkxngnanoJvj+54cdc87t8Wt7wwheGS6VV/7uRdBJCOAkhXNuo34/2vwohbO26v5dPXeizDz1GfTvl8ZFNIZ+ZOlYdvYRdqVk6vNUAHGMsYoyLGOOjmCMU35+1+4EIj2epR3jsYtaniZrR3/u2j8EC71rSo/iYlOD7wvC7HNEh1xYUN284Z/v633P1V/9bqhndXdpD9thjqO0cnKibUeyF0FWbrpw6stYn1e94afXCwunf9tPr/LUh2P63+46W6crw3L29ks9sK63X+1pt8q6jUzOzAPwYY7x9bRmVhd1FjPHe2iF9zGuufYwxt4bV5hvTVM3PA0N+gO8knVtn2+a5u5b0Sd2N9mwkXbZ5HPbw8fx5qLJa6cGK7T5Azn42ev/C/blzGv04ec3L1i/2tc8SgdL+/df+s34mME8l/cf+c5bg7XdjZS5q+Zlwn9I9/cJncWulVeGNnay9WD06PFf3Ax9t9gFTNaU6ffbPpaT/+0EIn9i/P60dpphVzpTZbFCjDr4HjXSo80623jE8c+5uO3jr3Ly0LvmVD757x/B7biMLBN9ugm9hHVnbHURl4XdInS7PN4Jv68HX6Ty69QVtn78Ryi74vhv7FbOfv8/lUyPYl9I66esOzt1SvstDu4VeO4bSGq7Xtf/Ac7Hb9ux0P07Ucr2vY00k0Hc73MmnnKz1el/Hj2NB8E2+oW6V9gwGL1GrKQdo/WfZF4QCDzvP0PskgHiF9xmtq/O27BUoPep96XQx1HboNX++x/y+HjNSgOCbRUM9nMFgk1ngvZH03j4u6Nqp0zEtO7z2O6ewNOlyTlX8I1DuMul0PX9xAPrkNttKmzOV2MvyJZeL4DvmTrM6mP4q5QB8GHiv2/6A7Qgzh23e2Jf6XVrJZ8aKGa2qF16jOHctd7r1SMJvLUa3R9eXOgXKqVqe39dm/BlD6VE19vuS4PvyAHyT0A1TWqfed+Ddf6BTtN0w+xi5dpxm6k9aU2+drsevBhP51PsOfcSJn5PH2Q438pnizKvedzPwl8/Rj2wTfF8egK9taqo+VgHbh92Vhd2TEMKmz8D7JAS07UuPx7OVz+pD6Kftbp06Mo96342GO7/4Zsizm+BFLz2Vw3Y95vcd8iJXvHwSfF/XkdoCCr+rWQjhRk0tYds3U2WNb3kQdi97+Pm/j1C36fH61g6jEwTffl1m1OkOMfyWYpRp7P1m7XRfF2q53nfA4XfFyyfBt43GUdpI8JkF4TZqgi8l/R5CeG8Be5Ng2D30R9udZALH+7XtDbb9YMbRna7XrB13Dp3uxl6q6wGc/lotLzqAbNvhTj6lZFO1XO97EH6HUvO7sQ/3QfBtvaFUalZCemvwy6mTmLS8vV0Cx+SxD1NaSL8vqfIZdZyo5Xrfg/09Ud4fgxF68fS+vna6pxcxxrnT/uZeHrDpYlpQgi/wen8l8HCuxZevQ+x0V04vNa3X+x68SJ8pz7nFSzUlWiV3Hp7wWixqHWOcOLTDjbXDHO9lQi/BFxmo2A9k2Ol6zO97OLf4WUb35EaM9OLnL3Re9b53TvtchhD23/TkoJa0JPQSfAHQ6dby+3jszquW2+oj9x1vqoGylnRu3yYQevGz+3krn4/HpjHGW8f9vlbzLc8u4dNb2ovnhjuN4AsA+0535bDpiRzqfQ9Du3W8J0rvi/ONmtKGLXcYXshrtpULj3rfg3ZYhRDO1PwKk1IArtWM8p5QYkTwBYCnbuRTs+dS7/tMx3u4sE6dQOBllBdHv8jJb7YVl3rfJ/u/OwjAfb6IVvq+guuGO+vXfuMUIDGzRN6ip1yKFzlrcVtlVzsdQqhjjOfyWYCl7ugYKknXkq5thOuDpLnaX0nxuev0Rc2HM8ce62WL+1c5HVtu9/RGaf/0/rN7uIwxnnRwz7oGYEm7GOOlpIW1w1kHf3or6esrwm6O93i71yzGmNtNlvT+xRivJV29JUhYQ8pCjPG+5Ube+1eoNlLw2HZAzOm6Il8xxpm1ydOW2mZtweqbpG3i84oDKbTBwl5C/7Q2OG3pRe+wHdYJHW9W14cRX7zVt5aD7yyBY2p9Hwi96HBwYKeDEUB7kZsc3Nd/6Mcj3bW+Tym4k1QRdIGj22CtJ+UP9kJaHITg01+E3P9aeyyV3/z+BF8MWtuNcRJjnPUcFD8kfo6AfWf6kv+3St9Hi7z+BoCf27e/Le2wX3zchrcqHbb5sccgMVHzE1Xq5wgAABB8MYDgu/D+IvcnrjI5RwAAgOCLLlndkUewu+36WCxsLxw2/Y07BQAAgi+GYeewzbnnJOQ/sM7o/AAAAIIveuA1ormOMU67OACbhm7msGm+xgUAgOCLobBlSj3CXWHht3AOvQv51PZKzUT/AACA4IsB2Tptdyrp3utjNwu96wzPCwAAIPiiJ54jm1NJDzYBeFuBt4gxrp1D747J/wEAIPgO2X/e+L8vcjxoW3DCM+QVakZ+128d/bVR3gf5zODQ1csAAAA4Nq/kthpICCGp/bEQNlOz2tespeBaqZkJ4KvVz2ahg7KBQxtJn0MI5Qv3rVCzMMWVfrxca5uqEMJ7HjFwbnOcBAAg+HYW8j6o/VW+nqrV1Il+6XkZ35eel8eOguXTl4S/9O/5hCf271Q+Mzb8zDKEsOERA4IvABB8swy+Nmp4IemT+ilJKNWMciYbqDoe9U0Vo70g+AIAwTff4GvzvPYVeP8VrCRdploGEWN8UPNB2lgx2guCLwAQfPMLvjaTwFrd/nz/UjsLWVVinfFM0v1I29Q2hHDOowUEXwBID7M6/LhDKWKMtxbgJonu5kzNNF8Xib2c7CStRnjb1JIuaT0AAKSJEd/nQ+9U0l3Cgfc5O0nnqSyPa/XQ9xpXycN5TrNwYBAv6JwEADgCI77/7kgWSnuU90dmakZ/kwiaFsCX8lnKOEUbQi8AAGljxPefofdC0m3m17SWdPbS+W07eJGYqxk9H7IyhHDC4wQ9tC9OAgAcgRHf7x3IegChV2pmnXiwkesUXlS2akZ+Bxt6JZ3RggAASB8jvk3ovVUzP+/QnKWy6MVAz3Et6SS1WTUwqhd2TgIAHGH0I742Mnox0MO7S6jm91LDmumhthcLQi8AAJkY9YjvSOpPayU0KjmQld1KC701jxD03J44CQBwhNGO+NpI6BiW1i1SCve2otm58p3tYUvoBQCA4JubtdJYfrgLU6uxTSX8btV8EFZmdh5vQgjnhF4AAAi+2YgxXmtcCytI0oUtJZxK+N1PAXaTwbmr1IzyXvPIAAAgX6Or8bUSh4eRXu9KTb1vndiLyFTNVHKzBM/ZjaQVo7xI9CWekwAARxjjiO/tiK/3RAnOYGGjv2dq5vutEtmtjaT3IYRrQi8AAMMwqhHfgcwo8Fa1Ep971q7TlfpZNnqjppa34vGA1DHiCwAE3591Eo8dh6lS0lf7z3q/mESMsVBTYzyR9Kekecf7tQkhJL+amk0390HSwvlPVZI+23mpeSyA4AsABN+sg2+Ho731QYiqjti/maSPHYS8vfe5jGrai8LMQvCspZeEnb2U7EIIJY8CEHwBgOA7pOB7L/+Pp1Zqfiav39CRTSyge+/rTa6zFByMmM8k/Ue/nqGjlvSXmpHdkqALgi8AEHwHG3w7mMmhlnS+L2VoqUO7kO+HeHUI4XeaAEDwBYCxGMusDh8dt12qmeN11+ZGQwgrNYs81E77XVgNLQAAAMF3QBbOobf02LiFac/w+4EmAAAACL4DYWUOhcOmazXlDbXn/luovnTa/JwmAAAACL7D4RXull3NihBC2Kj5cK5tRUrLGAMAABB83+bUYZvbEMK24+O4kU/JA8EXAAAQfAfCI9hddn0QVlLh8XdPaQYAAIDgmzmr723btq+FH6zkoW55s1OaAQAAIPjmb+KwzS89H9Om5e0VNAMAAEDwzd+07Q32UNv71Ne2N8gHbgAAgOCLp3Z970DbC2UAAAAQfIeh7Q+3viVyXGXL25vSFAAAAMEXKapb3l7BKQUAAARfHNoNNPgCAAAQfJEkgi8AAADB19Uskf2YcCkAAAAIvjhezSkAAAAE37yVLW8vleV9Z4mfJwAAAIJvx/6v5e1N+z4gp2WYAQAACL6Zq1reXhFjnPd8TB8dtlnSFAAAAMGX4PvUh56Pqe3gXYcQapoCAAAg+GbMaXnfRYxx0sfxxBgXan9Gh5JmAAAACL7D4BHsrno6Fo+/+41mAAAACL7DsHPY5iLGOOvyIGKM1/KZv3dHMwAAAGMQYox57XAIxwbGuaQ7h12pJJ10UR9rIfve6XwGmgGQp9ye3wDQt8GP+IYQtvJZoGEi6T7GWDh3bFOn4C5JW5oAAAAg+A6LV8CbeoZfC733krzC9VeaAAAAIPgOyxfHbe/D77Tl0Dt3Dr21GPEFAAAE32Gxac2qDsLvRQuBt4gx3qopbygc93nL/L0AAGBMBv9x20GgXEhad7CLlaSbEMLmyP2bSFpI+uQcePfehxAqmgCQLz5uAwCC7886iUf5TAn2nFpNKcE3SWUIoXxmf2ZqRotP1f6KbD+zCSEsuf0Bgi8AEHyHG3wX6mbUN3WM9gIEXwAYnXdjOlgrPxh74FsRegEAwBiNasRX8l0MIgO1mtHemlsfyB8jvgBwnHdjO2Cb4WE10uu9JPQCAICxGt2Ir9RMGSbpQd196JaCbQjhnFseGA5GfAGA4PvSDmNq4XcMKkknjPYCBF8AGLN3Yz1wm15sDFN61ZLOCb0AAIDgO2I2y8Nm4Ie5fG4OYQAAAILv+MLvcsDhdxlC2HKbAwAAEHyHHH6Xxy6bDAAAQPAl/BJ6AQAACL6DC7+rjA+hJvQCAAD8IOuNdTqzn4kxLiTdSioyOjWl+JANGBWmMwOA4zDi+3y43kg6sTCZg5WkM0IvAAAAwfc14bcKIZxIulRTQpCiygLvJfP0AgAAEHzfGoBXakZ/NwntVi3pRs1qbDuuEgAAwAtyHTW+LxdjnEi6krToMfB+lrRihBcANb4AQPDtKgAvJH2UNOngT5YWeLcEXgAEXwAg+PbV8cwlnUqatxyCS0lfLeyW3KoACL4AQPBNqROaSJpJ+lPS1ILwS8JwqeZDtb/sv+8Y2QVA8AUAgm+uHdRU/5wXuAohVNyCAAi+AEDwBQAAAFrDdGYAAAAg+AIAAAAEXwAAAIDgCwAAABB8AQAAAIIvAAAAQPAFAAAACL4AAAAAwRcAAAAEXwAAAIDgCwAAABB8AQAAAIIvAAAAQPAFAAAACL4AAAAAwRcAAAAg+AIAAAAEXwAAABB8AQAAAIIvAAAAQPAFAAAACL4AAAAAwRcAAAAg+AIAAAAEXwAAAIDgCwAAABB8AQAAQPAFAAAACL4AAAAAwRcAAAAg+AIAAAAEXwAAAIDgCwAAABB8AQAAAIIvAAAAQPAFAAAAwRcAAAAg+AIAAAAEXwAAAIDgCwAAABB8AQAAAIIvAAAAQPAFAAAAjvD/AwA/Bn1O+zp8FgAAAABJRU5ErkJggg==;" parent="1" vertex="1">
          <mxGeometry x="407" y="640" width="66" height="34.69" as="geometry" />
        </mxCell>
        <mxCell id="38" value="Home Team Producer Cluster" style="text;html=1;align=left;verticalAlign=middle;resizable=0;points=[];autosize=1;strokeColor=none;fillColor=none;fontSize=20;" parent="1" vertex="1">
          <mxGeometry x="-80.00000000000001" y="115" width="290" height="40" as="geometry" />
        </mxCell>
        <mxCell id="42" value="Encryption Service" style="rounded=1;whiteSpace=wrap;html=1;" parent="1" vertex="1">
          <mxGeometry x="-160" y="320" width="160" height="80" as="geometry" />
        </mxCell>
        <mxCell id="47" value="" style="aspect=fixed;html=1;points=[];align=center;image;fontSize=12;image=img/lib/azure2/compute/Kubernetes_Services.svg;strokeColor=default;" parent="1" vertex="1">
          <mxGeometry x="640" y="110" width="56.67" height="50" as="geometry" />
        </mxCell>
        <mxCell id="48" value="Home Team Consumer Cluster" style="text;html=1;align=left;verticalAlign=middle;resizable=0;points=[];autosize=1;strokeColor=none;fillColor=none;fontSize=20;" parent="1" vertex="1">
          <mxGeometry x="720" y="115" width="300" height="40" as="geometry" />
        </mxCell>
        <mxCell id="49" value="Encryption Service" style="rounded=1;whiteSpace=wrap;html=1;" parent="1" vertex="1">
          <mxGeometry x="880" y="320" width="160" height="80" as="geometry" />
        </mxCell>
        <mxCell id="55" value="" style="aspect=fixed;html=1;points=[];align=center;image;fontSize=12;image=img/lib/azure2/other/Container_App_Environments.svg;dashed=1;sketch=0;strokeColor=#B266FF;fontColor=default;fillColor=none;opacity=60;" parent="1" vertex="1">
          <mxGeometry x="220" y="600" width="50" height="50" as="geometry" />
        </mxCell>
        <mxCell id="97" style="edgeStyle=orthogonalEdgeStyle;html=1;exitX=1;exitY=0.5;exitDx=0;exitDy=0;entryX=0;entryY=0.5;entryDx=0;entryDy=0;dashed=1;strokeColor=#66B2FF;fontSize=16;fontColor=default;startArrow=none;startFill=0;" parent="1" source="57" target="67" edge="1">
          <mxGeometry relative="1" as="geometry" />
        </mxCell>
        <mxCell id="57" value="Listening Shark&lt;br&gt;(n)" style="rounded=1;whiteSpace=wrap;html=1;" parent="1" vertex="1">
          <mxGeometry x="740" y="839" width="160" height="80" as="geometry" />
        </mxCell>
        <mxCell id="58" value="Encryption Service" style="rounded=1;whiteSpace=wrap;html=1;" parent="1" vertex="1">
          <mxGeometry x="1340" y="839" width="160" height="80" as="geometry" />
        </mxCell>
        <mxCell id="62" value="Away Team Frenzy" style="text;html=1;align=left;verticalAlign=middle;resizable=0;points=[];autosize=1;strokeColor=none;fillColor=none;fontSize=20;" parent="1" vertex="1">
          <mxGeometry x="845" y="765" width="190" height="40" as="geometry" />
        </mxCell>
        <mxCell id="66" value="" style="dashed=0;outlineConnect=0;html=1;align=center;labelPosition=center;verticalLabelPosition=bottom;verticalAlign=top;shape=mxgraph.weblogos.mongodb;sketch=0;strokeColor=#FFFFFF;fontSize=16;fontColor=default;fillColor=none;" parent="1" vertex="1">
          <mxGeometry x="970" y="849" width="30" height="50" as="geometry" />
        </mxCell>
        <mxCell id="92" style="edgeStyle=orthogonalEdgeStyle;html=1;exitX=1;exitY=0.5;exitDx=0;exitDy=0;entryX=0.25;entryY=0;entryDx=0;entryDy=0;dashed=1;strokeColor=#66B2FF;fontSize=16;fontColor=default;startArrow=none;startFill=0;" parent="1" source="67" target="75" edge="1">
          <mxGeometry relative="1" as="geometry" />
        </mxCell>
        <mxCell id="67" value="&lt;span style=&quot;font-size: 16px; text-align: left;&quot;&gt;/encrypted_messages&lt;/span&gt;&lt;br style=&quot;font-size: 16px; text-align: left;&quot;&gt;&lt;span style=&quot;font-size: 16px; text-align: left;&quot;&gt;&#x9;&lt;/span&gt;&lt;span style=&quot;font-size: 16px; text-align: left;&quot;&gt;pk: batch_id&lt;/span&gt;" style="rounded=0;whiteSpace=wrap;html=1;sketch=0;strokeColor=#FFFFFF;fontColor=default;fillColor=none;dashed=1;" parent="1" vertex="1">
          <mxGeometry x="980" y="919" width="300" height="50" as="geometry" />
        </mxCell>
        <mxCell id="69" value="Away Team Intel MongoDB" style="text;html=1;align=left;verticalAlign=middle;resizable=0;points=[];autosize=1;strokeColor=none;fillColor=none;fontSize=20;" parent="1" vertex="1">
          <mxGeometry x="1020" y="854" width="260" height="40" as="geometry" />
        </mxCell>
        <mxCell id="70" value="&lt;span style=&quot;font-size: 16px; text-align: left;&quot;&gt;/decrypted_messages&lt;/span&gt;&lt;br style=&quot;font-size: 16px; text-align: left;&quot;&gt;&lt;span style=&quot;font-size: 16px; text-align: left;&quot;&gt;&#x9;&lt;/span&gt;&lt;span style=&quot;font-size: 16px; text-align: left;&quot;&gt;pk: batch_id&lt;/span&gt;" style="rounded=0;whiteSpace=wrap;html=1;sketch=0;strokeColor=#FFFFFF;fontColor=default;fillColor=none;dashed=1;" parent="1" vertex="1">
          <mxGeometry x="980" y="989" width="300" height="50" as="geometry" />
        </mxCell>
        <mxCell id="71" value="&lt;span style=&quot;font-size: 16px; text-align: left;&quot;&gt;/&lt;/span&gt;&lt;span style=&quot;font-size: 16px; text-align: left;&quot;&gt;encryption_keys&lt;/span&gt;&lt;br style=&quot;font-size: 16px; text-align: left;&quot;&gt;&lt;span style=&quot;font-size: 16px; text-align: left;&quot;&gt;&#x9;&lt;/span&gt;&lt;span style=&quot;font-size: 16px; text-align: left;&quot;&gt;pk: batch_id&lt;/span&gt;" style="rounded=0;whiteSpace=wrap;html=1;sketch=0;strokeColor=#FFFFFF;fontColor=default;fillColor=none;dashed=1;" parent="1" vertex="1">
          <mxGeometry x="980" y="1060" width="300" height="50" as="geometry" />
        </mxCell>
        <mxCell id="72" value="" style="aspect=fixed;html=1;points=[];align=center;image;fontSize=12;image=img/lib/azure2/other/Container_App_Environments.svg;dashed=1;sketch=0;strokeColor=#B266FF;fontColor=default;fillColor=none;opacity=60;" parent="1" vertex="1">
          <mxGeometry x="735" y="760" width="50" height="50" as="geometry" />
        </mxCell>
        <mxCell id="94" style="edgeStyle=orthogonalEdgeStyle;html=1;exitX=0.75;exitY=0;exitDx=0;exitDy=0;entryX=0.75;entryY=1;entryDx=0;entryDy=0;dashed=1;strokeColor=#66B2FF;fontSize=16;fontColor=default;startArrow=none;startFill=0;" parent="1" source="75" target="58" edge="1">
          <mxGeometry relative="1" as="geometry" />
        </mxCell>
        <mxCell id="95" style="edgeStyle=orthogonalEdgeStyle;html=1;exitX=0;exitY=0.5;exitDx=0;exitDy=0;entryX=1;entryY=0.5;entryDx=0;entryDy=0;dashed=1;strokeColor=#66FF66;fontSize=16;fontColor=default;startArrow=none;startFill=0;" parent="1" source="75" target="70" edge="1">
          <mxGeometry relative="1" as="geometry" />
        </mxCell>
        <mxCell id="96" style="edgeStyle=orthogonalEdgeStyle;html=1;exitX=0.5;exitY=1;exitDx=0;exitDy=0;entryX=1;entryY=0.5;entryDx=0;entryDy=0;dashed=1;strokeColor=#66FF66;fontSize=16;fontColor=default;startArrow=none;startFill=0;" parent="1" source="75" target="71" edge="1">
          <mxGeometry relative="1" as="geometry" />
        </mxCell>
        <mxCell id="75" value="Cracking Shark&lt;br&gt;(n)" style="rounded=1;whiteSpace=wrap;html=1;" parent="1" vertex="1">
          <mxGeometry x="1340" y="974" width="160" height="80" as="geometry" />
        </mxCell>
      </root>
    </mxGraphModel>
  </diagram>
</mxfile>
